<?xml version="1.0" encoding="UTF-8" standalone="no"?>
<!-- Created with Inkscape (http://www.inkscape.org/) -->

<svg
   width="816.90356"
   height="166.22433"
   viewBox="0 0 816.90356 166.22433"
   id="svg2"
   version="1.1"
   inkscape:version="1.1.1 (1:1.1+202109281949+c3084ef5ed)"
   sodipodi:docname="logo_transparent.svg"
   inkscape:export-filename="/home/rasi/git/labwebsite/images/logo_transparent.png"
   inkscape:export-xdpi="90"
   inkscape:export-ydpi="90"
   xmlns:inkscape="http://www.inkscape.org/namespaces/inkscape"
   xmlns:sodipodi="http://sodipodi.sourceforge.net/DTD/sodipodi-0.dtd"
   xmlns="http://www.w3.org/2000/svg"
   xmlns:svg="http://www.w3.org/2000/svg"
   xmlns:rdf="http://www.w3.org/1999/02/22-rdf-syntax-ns#"
   xmlns:cc="http://creativecommons.org/ns#"
   xmlns:dc="http://purl.org/dc/elements/1.1/">
  <defs
     id="defs4">
    <inkscape:path-effect
       effect="spiro"
       id="path-effect3435"
       is_visible="true"
       lpeversion="0" />
  </defs>
  <sodipodi:namedview
     id="base"
     pagecolor="#ffffff"
     bordercolor="#666666"
     borderopacity="1.0"
     inkscape:pageopacity="0"
     inkscape:pageshadow="2"
     inkscape:zoom="0.5"
     inkscape:cx="407"
     inkscape:cy="119"
     inkscape:document-units="px"
     inkscape:current-layer="layer1"
     showgrid="false"
     inkscape:snap-nodes="true"
     inkscape:object-paths="true"
     inkscape:snap-intersection-paths="true"
     inkscape:object-nodes="true"
     inkscape:snap-midpoints="true"
     inkscape:snap-object-midpoints="true"
     inkscape:snap-center="true"
     inkscape:snap-text-baseline="true"
     inkscape:snap-global="false"
     fit-margin-top="0"
     fit-margin-left="0"
     fit-margin-right="0"
     fit-margin-bottom="0"
     units="px"
     inkscape:window-width="1920"
     inkscape:window-height="1016"
     inkscape:window-x="1920"
     inkscape:window-y="147"
     inkscape:window-maximized="1"
     inkscape:pagecheckerboard="0" />
  <metadata
     id="metadata7">
    <rdf:RDF>
      <cc:Work
         rdf:about="">
        <dc:format>image/svg+xml</dc:format>
        <dc:type
           rdf:resource="http://purl.org/dc/dcmitype/StillImage" />
      </cc:Work>
    </rdf:RDF>
  </metadata>
  <g
     inkscape:label="Layer 1"
     inkscape:groupmode="layer"
     id="layer1"
     transform="translate(-398.91597,-169.79614)">
    <path
       style="color:#000000;clip-rule:nonzero;display:inline;overflow:visible;visibility:visible;opacity:1;isolation:auto;mix-blend-mode:normal;color-interpolation:sRGB;color-interpolation-filters:linearRGB;solid-color:#000000;solid-opacity:1;fill:#00a854;fill-opacity:1;fill-rule:nonzero;stroke:none;stroke-width:6.92308;stroke-linecap:butt;stroke-linejoin:miter;stroke-miterlimit:4;stroke-dasharray:none;stroke-dashoffset:0;stroke-opacity:1;color-rendering:auto;image-rendering:auto;shape-rendering:auto;text-rendering:auto;enable-background:accumulate"
       d="m 482.02816,169.79614 a 83.111537,83.111537 0 0 0 -19.03922,2.30203 5.7967354,3.5672219 45 0 1 4.07532,2.24157 5.7967354,3.5672219 45 0 1 1.5764,6.62203 5.7967354,3.5672219 45 0 1 -6.62203,-1.5764 5.7967354,3.5672219 45 0 1 -0.63281,-0.70734 3.5672219,5.7967354 45 0 1 -0.72845,0.82547 3.5672219,5.7967354 45 0 1 -6.62202,1.5764 3.5672219,5.7967354 45 0 1 1.57641,-6.62203 3.5672219,5.7967354 45 0 1 0.48656,-0.45 83.111537,83.111537 0 0 0 -35.7975,23.4928 c 8.30931,-1.43733 21.48414,-4.72705 36.95484,-7.78218 17.44231,-3.44449 38.10265,-6.54685 59.49,-6.14391 2.95375,0.0557 5.92107,0.18203 8.89594,0.37969 0.31756,-0.36233 0.62831,-0.72749 0.96469,-1.08281 a 83.111537,83.111537 0 0 0 -24.2536,-10.44282 5.7967354,3.5672219 45 0 1 0.37829,5.14126 5.7967354,3.5672219 45 0 1 -6.62064,-1.57641 5.7967354,3.5672219 45 0 1 -0.63281,-0.70735 3.5672219,5.7967354 45 0 1 -0.72984,0.82407 3.5672219,5.7967354 45 0 1 -6.62062,1.57782 3.5672219,5.7967354 45 0 1 1.57641,-6.62204 3.5672219,5.7967354 45 0 1 0.81281,-0.72141 83.111537,83.111537 0 0 0 -8.48813,-0.54844 z m 30.17391,20.67047 c -19.08742,0.0785 -37.6381,2.89098 -53.60485,6.04406 -18.64318,3.68164 -33.19066,7.75695 -42.35625,8.45297 -0.0857,0.0341 -0.2137,0.0844 -0.21374,0.0844 -2.1e-4,7e-5 -0.21992,0.052 -0.28407,0.0632 -0.25665,0.0458 -0.28598,0.0392 -0.33609,0.0436 -0.40085,0.0317 -0.28738,0.0133 -0.39797,0.0155 -0.11064,0.002 -0.23818,0.004 -0.36984,0.006 -0.14945,10e-4 -0.28337,-3.1e-4 -0.40782,0 a 83.111537,83.111537 0 0 0 -7.70344,13.23281 c 17.00183,9.91711 39.80915,13.64689 60.04688,24.99187 1.01535,-1.34627 2.14445,-2.66611 3.40735,-3.92906 9.04191,-9.04218 20.85238,-11.89287 26.37843,-6.3675 0.70696,0.72195 1.28533,1.56721 1.72687,2.52 0.25254,-1.7925 0.78508,-3.67025 1.57781,-5.57015 -2.14901,0.038 -3.95393,-0.60414 -5.20452,-1.85203 -3.6475,-3.64663 -1.76728,-11.43987 4.20047,-17.40797 5.96814,-5.96844 13.76391,-7.85101 17.41077,-4.20329 1.24241,1.25212 1.88081,3.05665 1.84078,5.20313 1.89587,-0.78887 3.7677,-1.31724 5.5561,-1.56797 -0.94451,-0.44487 -1.78104,-1.02643 -2.4961,-1.7339 -3.89078,-3.89128 -3.60854,-10.89729 0.045,-17.85939 -2.94645,-0.1253 -5.88719,-0.17797 -8.81577,-0.16593 z m -24.67968,6.87376 a 5.7967354,3.5672219 45 0 1 0.2503,0.005 5.7967354,3.5672219 45 0 1 4.48172,2.28516 5.7967354,3.5672219 45 0 1 1.57641,6.62062 5.7967354,3.5672219 45 0 1 -6.62203,-1.5764 5.7967354,3.5672219 45 0 1 -0.63281,-0.70594 3.5672219,5.7967354 45 0 1 -0.72845,0.82406 3.5672219,5.7967354 45 0 1 -6.62203,1.57641 3.5672219,5.7967354 45 0 1 1.57642,-6.62063 3.5672219,5.7967354 45 0 1 5.5589,-2.17406 5.7967354,3.5672219 45 0 1 1.16157,-0.23344 z m -27.6947,5.00484 a 5.7967354,3.5672219 45 0 1 0.25313,0.005 5.7967354,3.5672219 45 0 1 4.48031,2.28514 5.7967354,3.5672219 45 0 1 1.57781,6.62063 5.7967354,3.5672219 45 0 1 -6.62203,-1.5764 5.7967354,3.5672219 45 0 1 -0.63281,-0.70734 3.5672219,5.7967354 45 0 1 -0.72984,0.82547 3.5672219,5.7967354 45 0 1 -6.62063,1.5764 3.5672219,5.7967354 45 0 1 1.5764,-6.62063 3.5672219,5.7967354 45 0 1 5.5561,-2.17406 5.7967354,3.5672219 45 0 1 1.16156,-0.23344 z M 414.493,204.7949 a 83.111537,83.111537 0 0 0 -0.18,0.26297 c 0.007,0.002 0.0492,0.0169 0.0492,0.0169 -1.2e-4,0 0.0724,0.0138 0.13078,0.0253 z m 122.03016,4.75313 c -1.89628,0.78868 -3.76888,1.31628 -5.5575,1.56655 0.94493,0.44508 1.78223,1.02601 2.4975,1.73391 5.52536,5.52604 2.67331,17.33646 -6.3689,26.37844 -0.59254,0.5925 -1.19752,1.15723 -1.81126,1.69594 10.94772,11.48601 15.80656,20.0629 19.00126,28.3514 3.09544,8.03098 4.68526,15.49158 9.23062,25.64297 a 83.111537,83.111537 0 0 0 7.44328,-16.30407 5.7967354,3.5672219 45 0 1 -4.02328,-2.23593 5.7967354,3.5672219 45 0 1 -0.63281,-0.70734 3.5672219,5.7967354 45 0 1 -0.72985,0.82547 3.5672219,5.7967354 45 0 1 -6.62062,1.5764 3.5672219,5.7967354 45 0 1 1.5764,-6.62062 3.5672219,5.7967354 45 0 1 5.5575,-2.17406 5.7967354,3.5672219 45 0 1 5.8936,2.05593 5.7967354,3.5672219 45 0 1 0.78609,0.89578 83.111537,83.111537 0 0 0 2.37515,-19.32047 83.111537,83.111537 0 0 0 -10.90968,-40.95562 c -5.70934,4.82879 -12.52621,6.13832 -15.86672,2.79703 -1.2424,-1.2521 -1.88081,-3.05525 -1.84078,-5.20171 z m -103.8614,1.11374 a 5.7967354,3.5672219 45 0 1 0.2503,0.005 5.7967354,3.5672219 45 0 1 4.48173,2.28515 5.7967354,3.5672219 45 0 1 1.5764,6.62203 5.7967354,3.5672219 45 0 1 -6.62063,-1.5764 5.7967354,3.5672219 45 0 1 -0.63421,-0.70734 3.5672219,5.7967354 45 0 1 -0.72845,0.82406 3.5672219,5.7967354 45 0 1 -6.62203,1.57641 3.5672219,5.7967354 45 0 1 1.57782,-6.62063 3.5672219,5.7967354 45 0 1 5.5575,-2.17407 5.7967354,3.5672219 45 0 1 1.16157,-0.23343 z m 33.76264,8.23781 a 5.7967354,3.5672219 45 0 1 0.25173,0.005 5.7967354,3.5672219 45 0 1 4.48171,2.28516 5.7967354,3.5672219 45 0 1 1.57642,6.62203 5.7967354,3.5672219 45 0 1 -6.62204,-1.57642 5.7967354,3.5672219 45 0 1 -0.63282,-0.70734 3.5672219,5.7967354 45 0 1 -0.72842,0.82407 3.5672219,5.7967354 45 0 1 -6.62204,1.5764 3.5672219,5.7967354 45 0 1 1.57641,-6.62063 3.5672219,5.7967354 45 0 1 5.55749,-2.17405 5.7967354,3.5672219 45 0 1 1.16156,-0.23345 z m 85.20892,4.54359 a 5.7967354,3.5672219 45 0 1 4.48171,2.28516 5.7967354,3.5672219 45 0 1 1.57641,6.62204 5.7967354,3.5672219 45 0 1 -6.62204,-1.57641 5.7967354,3.5672219 45 0 1 -0.6328,-0.70735 3.5672219,5.7967354 45 0 1 -0.72844,0.82547 3.5672219,5.7967354 45 0 1 -6.62203,1.57641 3.5672219,5.7967354 45 0 1 1.5764,-6.62203 3.5672219,5.7967354 45 0 1 5.55891,-2.17266 5.7967354,3.5672219 45 0 1 0.98296,-0.22922 5.7967354,3.5672219 45 0 1 0.42892,-0.001 z m -147.78985,1.43297 a 83.111537,83.111537 0 0 0 -4.9275,28.03219 83.111537,83.111537 0 0 0 13.2525,45.01266 c 0.0776,-0.45912 0.21303,-0.84629 0.45703,-1.09125 9.04192,-9.04221 20.85098,-11.89287 26.37703,-6.3675 0.70697,0.72195 1.28674,1.56719 1.72829,2.52 0.25254,-1.79253 0.78365,-3.67026 1.5764,-5.57015 -2.149,0.038 -3.95392,-0.60415 -5.20453,-1.85203 -3.64749,-3.64663 -1.76727,-11.44129 4.20047,-17.40939 5.96814,-5.96842 13.76393,-7.84959 17.41078,-4.20187 1.24263,1.25177 1.88038,3.05553 1.84078,5.20172 1.89627,-0.78869 3.77028,-1.31769 5.55891,-1.56796 -0.94494,-0.44507 -1.78223,-1.026 -2.4975,-1.73391 -3.64161,-3.64206 -3.6438,-10.0136 -0.63423,-16.52344 -18.49274,-10.27459 -40.8015,-13.90247 -59.13843,-24.44907 z m 15.4364,13.01344 a 5.7967354,3.5672219 45 0 1 0.25173,0.005 5.7967354,3.5672219 45 0 1 4.4803,2.28516 5.7967354,3.5672219 45 0 1 1.57642,6.62203 5.7967354,3.5672219 45 0 1 -6.62063,-1.57782 5.7967354,3.5672219 45 0 1 -0.63282,-0.70594 3.5672219,5.7967354 45 0 1 -0.72984,0.82407 3.5672219,5.7967354 45 0 1 -6.62063,1.5764 3.5672219,5.7967354 45 0 1 1.57642,-6.62061 3.5672219,5.7967354 45 0 1 5.5575,-2.17408 5.7967354,3.5672219 45 0 1 1.16155,-0.23344 z m 79.71047,5.18625 c -0.253,1.79231 -0.78488,3.66926 -1.57781,5.56875 2.14929,-0.0384 3.955,0.60297 5.20595,1.85063 3.64771,3.64686 1.76656,11.44265 -4.20188,17.41078 -5.96808,5.96772 -13.76276,7.84796 -17.40938,4.20047 -1.24263,-1.25178 -1.88179,-3.05552 -1.84219,-5.20172 -1.89627,0.7887 -3.76887,1.31768 -5.5575,1.56797 0.94493,0.44508 1.78225,1.026 2.4975,1.7339 5.52538,5.52606 2.67472,17.33652 -6.3675,26.37845 -1.20901,1.20896 -2.46975,2.29843 -3.75609,3.28077 4.15939,5.11415 8.69472,8.74039 13.30032,11.97 8.75691,6.1407 18.29143,10.85781 24.37593,21.19218 A 83.111537,83.111537 0 0 0 549.178,301.55896 l -0.16312,0.0802 c -6.25555,-12.77699 -8.00653,-21.61256 -11.19094,-29.87437 -3.00447,-7.79496 -7.25613,-15.43373 -18.2236,-26.76937 -7.2907,4.17855 -14.79978,4.67907 -18.88171,0.59765 -0.70683,-0.72141 -1.28661,-1.56508 -1.72829,-2.51718 z m 54.29954,1.63828 a 5.7967354,3.5672219 45 0 1 0.25172,0.005 5.7967354,3.5672219 45 0 1 4.48172,2.28516 5.7967354,3.5672219 45 0 1 1.5764,6.62062 5.7967354,3.5672219 45 0 1 -6.62062,-1.57641 5.7967354,3.5672219 45 0 1 -0.63422,-0.70734 3.5672219,5.7967354 45 0 1 -0.72844,0.82547 3.5672219,5.7967354 45 0 1 -6.62204,1.5764 3.5672219,5.7967354 45 0 1 1.57782,-6.62062 3.5672219,5.7967354 45 0 1 5.5561,-2.17406 5.7967354,3.5672219 45 0 1 1.16156,-0.23344 z m -108.29532,0.0984 a 5.7967354,3.5672219 45 0 1 0.25031,0.005 5.7967354,3.5672219 45 0 1 4.48173,2.28516 5.7967354,3.5672219 45 0 1 1.5764,6.62203 5.7967354,3.5672219 45 0 1 -6.62063,-1.5764 5.7967354,3.5672219 45 0 1 -0.63421,-0.70735 3.5672219,5.7967354 45 0 1 -0.72844,0.82406 3.5672219,5.7967354 45 0 1 -6.62203,1.5764 3.5672219,5.7967354 45 0 1 1.57781,-6.62061 3.5672219,5.7967354 45 0 1 5.5575,-2.17407 5.7967354,3.5672219 45 0 1 1.16156,-0.23343 z m 68.7361,7.41796 a 5.7967354,3.5672219 45 0 1 0.25172,0.005 5.7967354,3.5672219 45 0 1 4.48031,2.28516 5.7967354,3.5672219 45 0 1 1.57641,6.62061 5.7967354,3.5672219 45 0 1 -6.62062,-1.5764 5.7967354,3.5672219 45 0 1 -0.63282,-0.70734 3.5672219,5.7967354 45 0 1 -0.72984,0.82547 3.5672219,5.7967354 45 0 1 -6.62063,1.57641 3.5672219,5.7967354 45 0 1 1.57641,-6.62064 3.5672219,5.7967354 45 0 1 5.5575,-2.17405 5.7967354,3.5672219 45 0 1 1.16156,-0.23345 z m -97.16626,13.35516 a 5.7967354,3.5672219 45 0 1 4.48032,2.28516 5.7967354,3.5672219 45 0 1 1.57641,6.62203 5.7967354,3.5672219 45 0 1 -6.62063,-1.57641 5.7967354,3.5672219 45 0 1 -0.63281,-0.70735 3.5672219,5.7967354 45 0 1 -0.72984,0.82547 3.5672219,5.7967354 45 0 1 -6.62063,1.57642 3.5672219,5.7967354 45 0 1 1.57641,-6.62204 3.5672219,5.7967354 45 0 1 5.5575,-2.17406 5.7967354,3.5672219 45 0 1 0.98437,-0.22781 5.7967354,3.5672219 45 0 1 0.4289,-10e-4 z m 102.16408,9 a 5.7967354,3.5672219 45 0 1 4.48171,2.28516 5.7967354,3.5672219 45 0 1 1.57641,6.62203 5.7967354,3.5672219 45 0 1 -6.62062,-1.57641 5.7967354,3.5672219 45 0 1 -0.63422,-0.70735 3.5672219,5.7967354 45 0 1 -0.72844,0.82547 3.5672219,5.7967354 45 0 1 -6.62203,1.57642 3.5672219,5.7967354 45 0 1 1.5764,-6.62204 3.5672219,5.7967354 45 0 1 5.55891,-2.17406 5.7967354,3.5672219 45 0 1 0.98297,-0.22781 5.7967354,3.5672219 45 0 1 0.42891,-10e-4 z m -24.64595,2.75906 a 5.7967354,3.5672219 45 0 1 4.48173,2.28656 5.7967354,3.5672219 45 0 1 1.5764,6.62063 5.7967354,3.5672219 45 0 1 -6.62203,-1.57641 5.7967354,3.5672219 45 0 1 -0.63281,-0.70734 3.5672219,5.7967354 45 0 1 -0.72843,0.82548 3.5672219,5.7967354 45 0 1 -6.62205,1.5764 3.5672219,5.7967354 45 0 1 1.57642,-6.62204 3.5672219,5.7967354 45 0 1 5.5589,-2.17265 5.7967354,3.5672219 45 0 1 0.98297,-0.22921 5.7967354,3.5672219 45 0 1 0.4289,-0.001 z m 30.03329,19.88578 a 5.7967354,3.5672219 45 0 1 0.25031,0.005 5.7967354,3.5672219 45 0 1 4.48171,2.28516 5.7967354,3.5672219 45 0 1 1.57642,6.62061 5.7967354,3.5672219 45 0 1 -6.62203,-1.5764 5.7967354,3.5672219 45 0 1 -0.63282,-0.70594 3.5672219,5.7967354 45 0 1 -0.72843,0.82407 3.5672219,5.7967354 45 0 1 -6.62204,1.57641 3.5672219,5.7967354 45 0 1 1.5764,-6.62064 3.5672219,5.7967354 45 0 1 5.55892,-2.17405 5.7967354,3.5672219 45 0 1 1.16156,-0.23345 z m -36.59484,2.96719 a 5.7967354,3.5672219 45 0 1 0.25171,0.005 5.7967354,3.5672219 45 0 1 4.48172,2.28516 5.7967354,3.5672219 45 0 1 1.57641,6.62061 5.7967354,3.5672219 45 0 1 -6.62203,-1.5764 5.7967354,3.5672219 45 0 1 -0.63281,-0.70734 3.5672219,5.7967354 45 0 1 -0.72845,0.82547 3.5672219,5.7967354 45 0 1 -6.62203,1.5764 3.5672219,5.7967354 45 0 1 1.57642,-6.62203 3.5672219,5.7967354 45 0 1 5.55749,-2.17265 5.7967354,3.5672219 45 0 1 1.16157,-0.23345 z m -45.88875,0.23625 c -0.25276,1.79198 -0.78387,3.66814 -1.57641,5.56735 2.14901,-0.038 3.95393,0.60413 5.20453,1.85203 3.63423,3.63336 1.77761,11.38242 -4.13859,17.34187 a 83.111537,83.111537 0 0 0 40.9064,10.82531 83.111537,83.111537 0 0 0 14.43797,-1.36125 c -5.06962,-7.27672 -12.5966,-11.15136 -21.15984,-17.15625 -5.07462,-3.55851 -10.34701,-7.89467 -15.17907,-14.03436 -6.5939,3.12282 -13.07935,3.1694 -16.76672,-0.5175 -0.70682,-0.72141 -1.28659,-1.5651 -1.72827,-2.5172 z m 18.69187,13.1147 a 5.7967354,3.5672219 45 0 1 0.25172,0.005 5.7967354,3.5672219 45 0 1 4.48031,2.28514 5.7967354,3.5672219 45 0 1 1.5764,6.62205 5.7967354,3.5672219 45 0 1 -6.62062,-1.57641 5.7967354,3.5672219 45 0 1 -0.63422,-0.70735 3.5672219,5.7967354 45 0 1 -0.72843,0.82407 3.5672219,5.7967354 45 0 1 -6.62063,1.5764 3.5672219,5.7967354 45 0 1 1.5764,-6.62062 3.5672219,5.7967354 45 0 1 5.5575,-2.17406 5.7967354,3.5672219 45 0 1 1.16157,-0.23343 z m 48.7125,0.9928 a 5.7967354,3.5672219 45 0 1 4.48172,2.28656 5.7967354,3.5672219 45 0 1 1.57641,6.62064 5.7967354,3.5672219 45 0 1 -6.62204,-1.57642 5.7967354,3.5672219 45 0 1 -0.6328,-0.70734 3.5672219,5.7967354 45 0 1 -0.72845,0.82547 3.5672219,5.7967354 45 0 1 -6.62203,1.5764 3.5672219,5.7967354 45 0 1 1.57641,-6.62203 3.5672219,5.7967354 45 0 1 5.55891,-2.17265 5.7967354,3.5672219 45 0 1 0.98296,-0.22922 5.7967354,3.5672219 45 0 1 0.42891,-0.001 z"
       id="path5091-6" />
    <g
       id="g23855">
      <text
         xml:space="preserve"
         style="font-size:64px;line-height:1.4;font-family:Helvetica;-inkscape-font-specification:Helvetica;text-align:center;text-decoration-color:#000000;letter-spacing:0px;word-spacing:0px;text-anchor:middle;fill:#ffffff;stroke-width:0.264999;-inkscape-stroke:none;stop-color:#000000"
         x="593.41327"
         y="227.20358"
         id="text1886"><tspan
           sodipodi:role="line"
           x="593.41327"
           y="227.20358"
           style="font-style:normal;font-variant:normal;font-weight:normal;font-stretch:normal;font-size:64px;font-family:Inc;-inkscape-font-specification:Inc;text-align:start;text-anchor:start;fill:#000000"
           id="tspan9744">SUBRAMANIAM LAB</tspan></text>
      <text
         xml:space="preserve"
         style="font-size:96px;line-height:1.4;font-family:Helvetica;-inkscape-font-specification:Helvetica;text-align:center;text-decoration-color:#000000;letter-spacing:0px;word-spacing:0px;text-anchor:middle;fill:#ffffff;stroke-width:0.264999;-inkscape-stroke:none;stop-color:#000000"
         x="594.42578"
         y="324.96103"
         id="text1886-0"><tspan
           sodipodi:role="line"
           x="594.42578"
           y="324.96103"
           style="font-style:normal;font-variant:normal;font-weight:normal;font-stretch:normal;font-size:96px;font-family:Inconsolata;-inkscape-font-specification:'Inconsolata Bold';text-align:start;text-anchor:start;fill:#000000"
           id="tspan9744-3">DOCUMENTATION</tspan></text>
    </g>
  </g>
</svg>
